<?xml version="1.0" encoding="UTF-8" standalone="no"?>
<svg
   xmlns:osb="http://www.openswatchbook.org/uri/2009/osb"
   xmlns:dc="http://purl.org/dc/elements/1.1/"
   xmlns:cc="http://creativecommons.org/ns#"
   xmlns:rdf="http://www.w3.org/1999/02/22-rdf-syntax-ns#"
   xmlns:svg="http://www.w3.org/2000/svg"
   xmlns="http://www.w3.org/2000/svg"
   xmlns:sodipodi="http://sodipodi.sourceforge.net/DTD/sodipodi-0.dtd"
   xmlns:inkscape="http://www.inkscape.org/namespaces/inkscape"
   id="svg"
   width="32"
   height="32"
   version="1.1"
   viewBox="0 0 32 32"
   sodipodi:docname="configure.svg"
   inkscape:version="0.92.4 (5da689c313, 2019-01-14)">
  <metadata
     id="metadata35">
    <rdf:RDF>
      <cc:Work
         rdf:about="">
        <dc:format>image/svg+xml</dc:format>
        <dc:type
           rdf:resource="http://purl.org/dc/dcmitype/StillImage" />
      </cc:Work>
    </rdf:RDF>
  </metadata>
  <sodipodi:namedview
     pagecolor="#ffffff"
     bordercolor="#666666"
     borderopacity="1"
     objecttolerance="10"
     gridtolerance="10"
     guidetolerance="10"
     inkscape:pageopacity="0"
     inkscape:pageshadow="2"
     inkscape:window-width="1280"
     inkscape:window-height="977"
     id="namedview33"
     showgrid="false"
     inkscape:zoom="7.375"
     inkscape:cx="20.169492"
     inkscape:cy="16"
     inkscape:window-x="0"
     inkscape:window-y="0"
     inkscape:window-maximized="1"
     inkscape:current-layer="svg" />
  <defs
     id="defs4">
    <linearGradient
       id="linearGradient5606"
       osb:paint="solid">
      <stop
         id="stop5608"
         offset="0"
         style="stop-color:#000000" />
    </linearGradient>
  </defs>
  <g
     id="22-22-configure"
     transform="translate(32,10)">
    <rect
       style="opacity:0.01000001;fill:#ed1515;fill-opacity:0.00392157"
       width="22"
       height="22"
       x="0"
       y="0"
       id="rect6" />
    <path
       style="fill:#00aa7f;fill-opacity:1"
       d="M 8.9824219,3 8.8046875,5.1074219 a 6.3423397,6.2857118 0 0 0 -1.8535156,1.0625 L 5.0175781,5.2675781 3,8.7324219 4.7539062,9.9394531 A 6.3423397,6.2857118 0 0 0 4.6582031,11 6.3423397,6.2857118 0 0 0 4.75,12.064453 L 3,13.267578 5.0175781,16.732422 6.9453125,15.832031 a 6.3423397,6.2857118 0 0 0 1.859375,1.056641 L 8.9824219,19 h 4.0351561 l 0.177734,-2.107422 a 6.3423397,6.2857118 0 0 0 1.853516,-1.0625 L 16.982422,16.732422 19,13.267578 17.246094,12.060547 A 6.3423397,6.2857118 0 0 0 17.341797,11 6.3423397,6.2857118 0 0 0 17.25,9.9355469 L 19,8.7324219 16.982422,5.2675781 15.054688,6.1679688 A 6.3423397,6.2857118 0 0 0 13.195312,5.1113281 L 13.017578,3 Z M 11,8 a 3.0000004,2.9999999 0 0 1 3,3 3.0000004,2.9999999 0 0 1 -3,3 3.0000004,2.9999999 0 0 1 -3,-3 3.0000004,2.9999999 0 0 1 3,-3 z"
       id="path8" />
  </g>
  <g
     id="16-16-configure"
     transform="translate(51,34)">
    <rect
       style="opacity:0;fill:#cfd8dc"
       width="16"
       height="16"
       x="3"
       y="-18"
       id="rect11" />
    <g
       id="layer2"
       transform="translate(-421.0625,-446)">
      <path
         style="fill:#00aa7f;fill-opacity:1"
         d="m 430.25,429 -0.1543,1.84375 a 5.5,5.5 0 0 0 -1.60742,0.92969 l -1.67578,-0.78906 -1.75,3.03124 1.52148,1.05665 a 5.5,5.5 0 0 0 -0.084,0.92773 5.5,5.5 0 0 0 0.0801,0.93164 l -1.51758,1.05274 1.75,3.03124 1.67188,-0.7871 a 5.5,5.5 0 0 0 1.61132,0.92382 L 430.25,443 h 3.5 l 0.1543,-1.84375 a 5.5,5.5 0 0 0 1.60742,-0.92969 l 1.67578,0.78906 1.75,-3.03124 -1.52148,-1.05665 a 5.5,5.5 0 0 0 0.084,-0.92773 5.5,5.5 0 0 0 -0.0801,-0.93164 l 1.51758,-1.05274 -1.75,-3.03124 -1.67188,0.7871 a 5.5,5.5 0 0 0 -1.61132,-0.92382 L 433.75,429 Z m 1.75,5 a 2,2 0 0 1 2,2 2,2 0 0 1 -2,2 2,2 0 0 1 -2,-2 2,2 0 0 1 2,-2 z"
         id="path13" />
    </g>
  </g>
  <g
     id="configure">
    <rect
       width="32"
       height="32"
       x="0"
       y="0"
       style="opacity:0.001"
       id="rect17" />
    <g
       transform="translate(9.6369049e-5,0.9999)"
       id="g29">
      <path
         style="fill:#00aa7f;fill-opacity:1"
         d="m 13.134,1.0006 c -0.29681,0.0323 -0.55825,0.27515 -0.6125,0.56874 l -0.59061,2.9968 c -1.0603,0.41466 -2.0568,0.98438 -2.9312,1.6844 l -2.909,-0.9844 C 5.78844,5.16192 5.42184,5.29694 5.25945,5.57239 l -2.8,4.8562 c -0.15772,0.2793 -0.0901,0.66583 0.15312,0.87499 l 2.3187,2.0343 c -0.0816,0.54547 -0.13125,1.0943 -0.13125,1.6625 0,0.56822 0.0496,1.117 0.13125,1.6625 l -2.3187,2.0344 c -0.24319,0.20916 -0.31084,0.59569 -0.15312,0.87499 l 2.8,4.8562 c 0.16239,0.2754 0.52899,0.41046 0.83124,0.30624 l 2.9093,-0.98436 c 0.87441,0.69997 1.8709,1.2697 2.9312,1.6844 l 0.59061,2.9968 c 0.0599,0.3137 0.35879,0.56439 0.67812,0.56874 h 5.5999 c 0.31933,-0.004 0.61824,-0.25504 0.67811,-0.56874 l 0.59062,-2.9968 c 1.0603,-0.41466 2.0568,-0.98439 2.9312,-1.6844 l 2.9093,0.98436 c 0.30224,0.10422 0.66885,-0.0308 0.83124,-0.30624 l 2.8,-4.8562 c 0.15771,-0.2793 0.0901,-0.66583 -0.15312,-0.87499 l -2.3187,-2.0344 c 0.0816,-0.54547 0.13124,-1.0942 0.13124,-1.6625 0,-0.56822 -0.0497,-1.117 -0.13124,-1.6625 l 2.3187,-2.0343 c 0.24319,-0.20916 0.31083,-0.59569 0.15312,-0.87499 l -2.8,-4.8562 C 26.5779,5.29699 26.21129,5.16192 25.90905,5.26614 l -2.9093,0.98436 c -0.875,-0.7005 -1.871,-1.2702 -2.931,-1.6849 L 19.47813,1.5688 C 19.41823,1.2551 19.11935,1.0044 18.80002,1.00006 h -5.5999 c -0.0219,-5.1e-4 -0.0438,-5.1e-4 -0.0656,0 z"
         id="path19" />
      <path
         style="fill:#afe9c6"
         d="m 16,9.0002 c 3.3137,0 6,2.6863 6,6 0,3.3137 -2.6863,6 -6,6 -3.3137,0 -6,-2.6863 -6,-6 0,-3.3137 2.6863,-6 6,-6 z"
         id="path23" />
    </g>
  </g>
</svg>
