<?xml version="1.0" encoding="UTF-8" standalone="no"?>
<!-- Created with Inkscape (http://www.inkscape.org/) -->

<svg
   xmlns:dc="http://purl.org/dc/elements/1.1/"
   xmlns:cc="http://creativecommons.org/ns#"
   xmlns:rdf="http://www.w3.org/1999/02/22-rdf-syntax-ns#"
   xmlns:svg="http://www.w3.org/2000/svg"
   xmlns="http://www.w3.org/2000/svg"
   xmlns:xlink="http://www.w3.org/1999/xlink"
   xmlns:sodipodi="http://sodipodi.sourceforge.net/DTD/sodipodi-0.dtd"
   xmlns:inkscape="http://www.inkscape.org/namespaces/inkscape"
   id="svg5200"
   height="24"
   width="24"
   version="1.1"
   inkscape:version="0.92.4 (5da689c313, 2019-01-14)"
   sodipodi:docname="device.svg">
  <metadata
     id="metadata14">
    <rdf:RDF>
      <cc:Work
         rdf:about="">
        <dc:format>image/svg+xml</dc:format>
        <dc:type
           rdf:resource="http://purl.org/dc/dcmitype/StillImage" />
        <dc:title />
      </cc:Work>
    </rdf:RDF>
  </metadata>
  <sodipodi:namedview
     pagecolor="#ffffff"
     bordercolor="#000000"
     borderopacity="1"
     objecttolerance="10"
     gridtolerance="10"
     guidetolerance="10"
     inkscape:pageopacity="0.58823529"
     inkscape:pageshadow="2"
     inkscape:window-width="1280"
     inkscape:window-height="977"
     id="namedview12"
     showgrid="false"
     inkscape:zoom="8.0000001"
     inkscape:cx="-16.374999"
     inkscape:cy="17.304054"
     inkscape:window-x="0"
     inkscape:window-y="0"
     inkscape:window-maximized="1"
     inkscape:current-layer="svg5200"
     inkscape:snap-grids="false"
     inkscape:snap-to-guides="false"
     inkscape:snap-nodes="false"
     showguides="true"
     inkscape:guide-bbox="true" />
  <defs
     id="defs5202">
    <linearGradient
       id="linearGradient4731"
       y2="60.396"
       gradientUnits="userSpaceOnUse"
       x2="90.764999"
       gradientTransform="matrix(0.77273,0,0,0.82353,-49.712,-6.5027)"
       y1="16.396"
       x1="90.443001">
      <stop
         id="stop4170-5"
         style="stop-color:#fff"
         offset="0" />
      <stop
         id="stop4172-4"
         style="stop-color:#c8c8c8"
         offset="1" />
    </linearGradient>
    <linearGradient
       id="linearGradient4731-2"
       y2="60.396"
       gradientUnits="userSpaceOnUse"
       x2="90.764999"
       gradientTransform="matrix(0.77273,0,0,0.82353,-49.712,-6.5027)"
       y1="16.396"
       x1="90.443001">
      <stop
         id="stop4170-5-0"
         style="stop-color:#fff"
         offset="0" />
      <stop
         id="stop4172-4-7"
         style="stop-color:#c8c8c8"
         offset="1" />
    </linearGradient>
    <linearGradient
       y2="60.396"
       x2="90.764999"
       y1="16.396"
       x1="90.443001"
       gradientTransform="matrix(0.77273,0,0,0.82353,-49.712,-6.5027)"
       gradientUnits="userSpaceOnUse"
       id="linearGradient3038"
       xlink:href="#linearGradient4731-2"
       inkscape:collect="always" />
  </defs>
  <g
     id="device-notifier">
    <rect
       y="0"
       x="0"
       height="24"
       width="24"
       id="rect2991"
       style="opacity:0.01000001;fill:#000000;fill-opacity:0.00392157;stroke:none" />
    <g
       transform="translate(28,0)"
       id="g3992">
      <path
         inkscape:connector-curvature="0"
         d="M -4.355881,8.3088231 C -4.355881,7.8587038 -4.746892,7.5 -5.225399,7.5 l -16.378354,0 c -0.478474,0 -0.869517,0.3587038 -0.869517,0.8088231 l 0,9.3823539 c 0,0.450126 0.39101,0.808823 0.869517,0.808823 l 16.378354,0 c 0.478475,0 0.869518,-0.358697 0.869518,-0.808823 l 0,-9.3823539 z m -1.941176,4.7113659 -1.941177,1.132353 0,-0.768382 -5.439306,0 c 0,0.107657 1.074311,1.161341 1.556953,1.516576 0.208533,0.153462 0.509202,0.242647 0.788635,0.242647 0.421384,0 0.505515,0.139175 0.505515,-0.181985 l 0,-0.343751 1.961365,0 0,1.941177 -1.961365,0 0,-0.323529 c -0.0328,-0.279859 -0.179785,-0.472897 -0.647059,-0.525735 -0.696818,-0.07876 -1.157654,-0.378608 -2.264705,-1.476072 l -0.930149,-0.849265 -3.295922,0 -0.141544,0.242647 c -0.08332,0.172513 -0.360808,0.407862 -0.606618,0.525735 -0.876054,0.420085 -1.819853,-0.14914 -1.819853,-1.112165 0.02555,-0.697852 0.389231,-1.213234 1.091911,-1.213234 0.826553,0 1.045971,0.270374 1.33456,0.606617 0.130402,0.269947 0.207446,0.306869 0.626838,0.30331 0.463482,-0.0045 0.406903,-0.05149 1.152541,-0.909897 1.1385,-1.310551 1.4256,-1.483963 2.567982,-1.637833 0.8426,-0.113513 0.646496,-0.03813 0.970588,-0.363971 0.596556,-0.599752 1.484288,-0.491544 1.860295,0.222427 0.338715,0.643182 -0.03455,1.402889 -0.788636,1.637836 -0.371599,0.115807 -1.011029,-0.152927 -1.233423,-0.525735 -0.203539,-0.341156 0.143621,-0.482429 -0.606619,-0.404412 -0.415243,0.04329 -0.903294,0.137 -1.071657,0.222426 -0.289262,0.146714 -1.637836,1.582706 -1.637836,1.738972 l 8.027411,0 0,-0.788637 c 0.639663,0.368383 1.297613,0.73506 1.941177,1.091911 z M -23.120588,9.097394 c 0,-0.1644761 -0.125646,-0.303309 -0.283089,-0.303309 l -3.963235,0 c -0.157448,0 -0.283088,0.1388329 -0.283088,0.303309 l 0,7.804824 c 0,0.164469 0.125646,0.30331 0.283088,0.30331 l 3.963235,0 c 0.157449,0 0.283089,-0.138841 0.283089,-0.30331 l 0,-7.804824 z m -1.294117,0.990777 0,1.941176 -1.941177,0 0,-1.941176 1.941177,0 z m 0,3.882352 0,1.941178 -1.941177,0 0,-1.941178 1.941177,0 z"
         style="opacity:0;color:#000000;fill:#000000;fill-opacity:0"
         id="path4711-7-4" />
      <path
         inkscape:connector-curvature="0"
         d="M -4.355881,7.3088231 C -4.355881,6.8587038 -4.746892,6.5 -5.225399,6.5 l -16.378354,0 c -0.478474,0 -0.869517,0.3587038 -0.869517,0.8088231 l 0,9.3823539 c 0,0.450126 0.39101,0.808823 0.869517,0.808823 l 16.378354,0 c 0.478475,0 0.869518,-0.358697 0.869518,-0.808823 l 0,-9.3823539 z m -1.941176,4.7113659 -1.941177,1.132353 0,-0.768382 -5.439306,0 c 0,0.107657 1.074311,1.161341 1.556953,1.516576 0.208533,0.153462 0.509202,0.242647 0.788635,0.242647 0.421384,0 0.505515,0.139175 0.505515,-0.181985 l 0,-0.343751 1.961365,0 0,1.941177 -1.961365,0 0,-0.323529 c -0.0328,-0.279859 -0.179785,-0.472897 -0.647059,-0.525735 -0.696818,-0.07876 -1.157654,-0.378608 -2.264705,-1.476072 l -0.930149,-0.849265 -3.295922,0 -0.141544,0.242647 c -0.08332,0.172513 -0.360808,0.407862 -0.606618,0.525735 -0.876054,0.420085 -1.819853,-0.14914 -1.819853,-1.112165 0.02555,-0.697852 0.389231,-1.213234 1.091911,-1.213234 0.826553,0 1.045971,0.270374 1.33456,0.606617 0.130402,0.269947 0.207446,0.306869 0.626838,0.30331 0.463482,-0.0045 0.406903,-0.05149 1.152541,-0.909897 1.1385,-1.3105509 1.4256,-1.4839628 2.567982,-1.6378333 0.8426,-0.1135122 0.646496,-0.038133 0.970588,-0.3639706 0.596556,-0.5997525 1.484288,-0.4915443 1.860295,0.2224274 0.338715,0.643182 -0.03455,1.4028885 -0.788636,1.6378355 -0.371599,0.115807 -1.011029,-0.152927 -1.233423,-0.525735 -0.203539,-0.341156 0.143621,-0.482429 -0.606619,-0.4044124 -0.415243,0.043292 -0.903294,0.1370009 -1.071657,0.2224262 -0.289262,0.1467142 -1.637836,1.5827062 -1.637836,1.7389722 l 8.027411,0 0,-0.788637 c 0.639663,0.368383 1.297613,0.73506 1.941177,1.091911 z M -23.120588,8.0973942 c 0,-0.1644763 -0.125646,-0.3033092 -0.283089,-0.3033092 l -3.963235,0 c -0.157448,0 -0.283088,0.1388329 -0.283088,0.3033092 l 0,7.8048238 c 0,0.164469 0.125646,0.30331 0.283088,0.30331 l 3.963235,0 c 0.157449,0 0.283089,-0.138841 0.283089,-0.30331 l 0,-7.8048238 z m -1.294117,0.9907769 0,1.9411759 -1.941177,0 0,-1.9411759 1.941177,0 z m 0,3.8823519 0,1.941178 -1.941177,0 0,-1.941178 1.941177,0 z"
         style="color:#000000;fill:#e6e6e6;fill-opacity:1"
         id="path4711-7" />
    </g>
  </g>
</svg>
