<?xml version="1.0" encoding="UTF-8" standalone="no"?>
<svg
   xmlns:dc="http://purl.org/dc/elements/1.1/"
   xmlns:cc="http://creativecommons.org/ns#"
   xmlns:rdf="http://www.w3.org/1999/02/22-rdf-syntax-ns#"
   xmlns:svg="http://www.w3.org/2000/svg"
   xmlns="http://www.w3.org/2000/svg"
   xmlns:xlink="http://www.w3.org/1999/xlink"
   xmlns:sodipodi="http://sodipodi.sourceforge.net/DTD/sodipodi-0.dtd"
   xmlns:inkscape="http://www.inkscape.org/namespaces/inkscape"
   viewBox="0 0 22 22"
   id="svg"
   version="1.1"
   inkscape:version="0.92.4 (5da689c313, 2019-01-14)"
   width="100%"
   height="100%"
   sodipodi:docname="notification.svg">
  <defs
     id="defs81">
    <linearGradient
       inkscape:collect="always"
       id="linearGradient855">
      <stop
         style="stop-color:#00aa7f;stop-opacity:1"
         offset="0"
         id="stop851" />
      <stop
         style="stop-color:#afe9c6;stop-opacity:1"
         offset="1"
         id="stop853" />
    </linearGradient>
    <style
       id="current-color-scheme"
       type="text/css">
      .ColorScheme-Text {
        color:#7B7C7E;
      }
      .ColorScheme-Background{
        color:#EFF0F1;
      }
      .ColorScheme-Highlight{
        color:#3DAEE6;
      }
      .ColorScheme-ViewText {
        color:#7B7C7E;
      }
      .ColorScheme-ViewBackground{
        color:#FCFCFC;
      }
      .ColorScheme-ViewHover {
        color:#3DAEE6;
      }
      .ColorScheme-ViewFocus{
        color:#1E92FF;
      }
      .ColorScheme-ButtonText {
        color:#7B7C7E;
      }
      .ColorScheme-ButtonBackground{
        color:#EFF0F1;
      }
      .ColorScheme-ButtonHover {
        color:#3DAEE6;
      }
      .ColorScheme-ButtonFocus{
        color:#1E92FF;
      }
</style>
    <linearGradient
       inkscape:collect="always"
       xlink:href="#linearGradient4254"
       id="linearGradient5399"
       gradientUnits="userSpaceOnUse"
       x1="317.91653"
       y1="909.77173"
       x2="317.91653"
       y2="912.77173" />
    <linearGradient
       id="linearGradient4254">
      <stop
         id="stop4256"
         offset="0"
         style="stop-color:#888888;stop-opacity:1;" />
      <stop
         id="stop4258"
         offset="1"
         style="stop-color:#232323;stop-opacity:1;" />
    </linearGradient>
    <linearGradient
       inkscape:collect="always"
       xlink:href="#linearGradient855"
       id="linearGradient857"
       x1="4.000011"
       y1="11.999993"
       x2="19.999988"
       y2="11.999993"
       gradientUnits="userSpaceOnUse" />
  </defs>
  <metadata
     id="metadata34">
    <rdf:RDF>
      <cc:Work
         rdf:about="">
        <dc:format>image/svg+xml</dc:format>
        <dc:type
           rdf:resource="http://purl.org/dc/dcmitype/StillImage" />
        <dc:title></dc:title>
      </cc:Work>
    </rdf:RDF>
  </metadata>
  <sodipodi:namedview
     pagecolor="#ffffff"
     bordercolor="#000000"
     borderopacity="1"
     objecttolerance="10"
     gridtolerance="10"
     guidetolerance="10"
     inkscape:pageopacity="0.11372549"
     inkscape:pageshadow="2"
     inkscape:window-width="1920"
     inkscape:window-height="1029"
     id="namedview32"
     showgrid="false"
     inkscape:zoom="2.8284273"
     inkscape:cx="-48.943454"
     inkscape:cy="41.058975"
     inkscape:window-x="0"
     inkscape:window-y="0"
     inkscape:window-maximized="1"
     inkscape:current-layer="svg"
     borderlayer="true"
     showguides="true"
     inkscape:guide-bbox="true"
     inkscape:snap-bbox="true">
    <inkscape:grid
       type="xygrid"
       id="grid3046"
       empspacing="4"
       visible="true"
       enabled="true"
       snapvisiblegridlinesonly="true"
       color="#0000ff"
       opacity="0.05490196"
       empcolor="#0000ff"
       empopacity="0.11372549" />
  </sodipodi:namedview>
  <g
     id="notification-progress-active"
     transform="translate(39,-1)">
    <rect
       style="fill:#ffffff;fill-opacity:0;stroke:none"
       id="rect3009"
       width="22"
       height="22"
       x="1"
       y="1" />
    <rect
       ry="7.9999886"
       y="4"
       x="4.000011"
       height="15.999987"
       width="15.999977"
       id="rect5921-0"
       style="fill:url(#linearGradient857);fill-opacity:1;stroke:none" />
  </g>
  <g
     id="notification-inactive"
     transform="translate(-1,-1)">
    <rect
       y="1"
       x="1"
       height="22"
       width="22"
       id="rect3028"
       style="fill:#ffffff;fill-opacity:0;stroke:none" />
    <path
       style="color:#7b7c7e;fill:#00aa7f;fill-opacity:1;stroke:none"
       d="M 11.023438,2.9277344 C 10.264519,2.9274624 9.6329894,3.509464 9.5683594,4.265625 6.0000004,5 5,7.0000004 5.0683594,10.037109 L 5,15 3,16 h 16 l -2,-1 0.05273,-4.994141 C 17.000004,7.0000004 16.000004,5 12.484375,4.3125 12.443055,3.536445 11.800592,2.9271914 11.023438,2.9277344 Z M 8.5761719,17 c 0.199789,1.0424 1.1105132,1.826172 2.2128901,1.826172 C 11.891439,18.826172 12.800209,18.0424 13,17 Z"
       transform="translate(1,1)"
       id="path3016"
       inkscape:connector-curvature="0"
       sodipodi:nodetypes="cccccccccccscc" />
  </g>
  <g
     id="notification-progress-inactive"
     transform="translate(38.999989,39)">
    <rect
       style="fill:#ffffff;fill-opacity:0;stroke:none"
       id="rect3060"
       width="22"
       height="22"
       x="1"
       y="1" />
    <path
       style="color:#7b7c7e;opacity:0.882;fill:#00aa7f;fill-opacity:1;stroke:none"
       d="m 51.023438,42.927734 c -0.758919,-2.72e-4 -1.390449,0.58173 -1.455079,1.337891 C 46,45 45,47 45.068359,50.037109 L 45,55 43,56 h 16 l -2,-1 0.05273,-4.994141 C 57.000008,47 56.000004,45 52.484375,44.3125 52.443055,43.536445 51.800592,42.927191 51.023438,42.927734 Z M 48.576172,57 c 0.199789,1.0424 1.110514,1.826172 2.21289,1.826172 C 51.891439,58.826172 52.800209,58.0424 53,57 Z"
       transform="translate(-38.999989,-39)"
       id="rect5933-8"
       inkscape:connector-curvature="0"
       sodipodi:nodetypes="cccccccccccscc" />
  </g>
  <path
     class="ColorScheme-Text"
     inkscape:connector-curvature="0"
     style="fill:currentColor;fill-opacity:1"
     d="m -18,23 2,-2 2,2 z"
     id="expander-bottom"
     sodipodi:nodetypes="cccc" />
  <path
     class="ColorScheme-Text"
     inkscape:connector-curvature="0"
     sodipodi:nodetypes="cccc"
     id="expander-top"
     d="m -18,17 2,2 2,-2 z"
     style="fill:currentColor;fill-opacity:1" />
  <path
     class="ColorScheme-Text"
     inkscape:connector-curvature="0"
     style="fill:currentColor;fill-opacity:1"
     d="m -13,18 -2,2 2,2 z"
     id="expander-right"
     sodipodi:nodetypes="cccc" />
  <path
     class="ColorScheme-Text"
     inkscape:connector-curvature="0"
     sodipodi:nodetypes="cccc"
     id="expander-left"
     d="m -19,18 2,2 -2,2 z"
     style="fill:currentColor;fill-opacity:1" />
  <g
     transform="translate(-1,-41)"
     id="notification-disabled">
    <rect
       style="fill:#ffffff;fill-opacity:0;stroke:none"
       id="rect3022"
       width="22"
       height="22"
       x="1"
       y="1" />
    <path
       style="color:#7b7c7e;opacity:0.90200022;fill:#00aa7f;fill-opacity:1;stroke:none"
       d="m 12.023438,-37.072266 c -0.758918,-2.72e-4 -1.390449,0.58173 -1.455079,1.337891 C 7,-35 6,-33 6.0683594,-29.962891 L 6,-25 4,-24 h 16 l -2,-1 0.05273,-4.994141 C 18,-33 17,-35 13.484371,-35.6875 c -0.04132,-0.776055 -0.683783,-1.385309 -1.460937,-1.384766 z M 9.5761719,-23 c 0.199789,1.0424 1.1105131,1.826172 2.2128901,1.826172 1.102376,0 2.011147,-0.783772 2.210938,-1.826172 z"
       transform="translate(1,41)"
       id="path3024"
       inkscape:connector-curvature="0"
       sodipodi:nodetypes="ccccccccccccccc" />
  </g>
  <g
     transform="translate(39,-41)"
     id="notification-empty">
    <rect
       style="fill:#ffffff;fill-opacity:0;stroke:none"
       id="rect3798"
       width="22"
       height="22"
       x="1"
       y="1" />
    <path
       style="color:#7b7c7e;fill:#00aa7f;fill-opacity:1;stroke:none"
       d="m 51,-37.072266 c -0.758918,-2.72e-4 -1.390448,0.58173 -1.455078,1.337891 C 46,-35 45,-33 45.044922,-29.962891 L 44.976562,-25 l -2,1 h 10.238282 5.761718 l -2,-1 0.02344,-2.271484 0.0293,-2.722657 C 57,-33 56,-35 52.460938,-35.6875 52.419618,-36.463555 51.777154,-37.072809 51,-37.072266 Z M 48.552734,-23 c 0.156017,0.81402 0.747626,1.464384 1.523438,1.712891 0.21766,0.06972 0.447932,0.113281 0.689453,0.113281 1.102376,0 2.011147,-0.783772 2.210937,-1.826172 h -0.917968 z"
       transform="translate(-39,41)"
       id="path3800"
       inkscape:connector-curvature="0"
       sodipodi:nodetypes="ccccccccccccccsccc" />
  </g>
  <g
     id="notification-active"
     transform="translate(0.02081476,39.698483)">
    <path
       style="fill:none"
       inkscape:connector-curvature="0"
       d="M 1,1 H 23 V 23 H 1 Z"
       id="path14" />
    <path
       inkscape:connector-curvature="0"
       d="M 6.3457031,3.345703 A 7.9999995,7.9999995 0 0 0 4,9 H 5 A 7,7 0 0 1 7.0527344,4.052734 Z m 11.3085939,0 -0.707031,0.707031 A 7,7 0 0 1 19,9 h 1 A 7.9999995,7.9999995 0 0 0 17.654297,3.345703 Z M 16.238281,4.761719 15.529297,5.470703 A 5,5 0 0 1 17,9 h 1 A 6,6 0 0 0 16.238281,4.761719 Z M 7.765625,4.765625 A 6,6 0 0 0 6,9 H 7 A 5,5 0 0 1 8.4667969,5.466797 Z"
       class="ColorScheme-Text"
       id="path16"
       style="color:#7b7c7e;fill:#00aa7f;fill-opacity:1;fill-rule:evenodd" />
    <path
       inkscape:connector-curvature="0"
       d="M 10.269531,17 A 2,2 0 0 0 10,18 a 2,2 0 0 0 2,2 2,2 0 0 0 2,-2 2,2 0 0 0 -0.271484,-1 z M 12,4 A 1,1 0 0 0 11,5 1,1 0 0 0 11.0098,5.128906 3.9999999,3.9999999 0 0 0 8,9 c 0,3 -1,4 -3,6 v 1 H 19 V 15 C 17,13 16,12 16,9 A 3.9999999,3.9999999 0 0 0 12.990234,5.128906 1,1 0 0 0 13,5 1,1 0 0 0 12,4 Z m 0,2 a 3,3 0 0 1 3,3 c 0,3 0.585938,4 2.585938,6 H 6.414062 c 2,-2 2.5859375,-3 2.5859375,-6 A 3,3 0 0 1 12,6 Z"
       class="ColorScheme-Text"
       id="path18"
       style="color:#7b7c7e;fill:#a1b4ba;fill-opacity:1;fill-rule:evenodd" />
  </g>
</svg>
